<svg width="100" height="120" viewBox="0 0 100 120" fill="none" xmlns="http://www.w3.org/2000/svg">
<path d="M97.4061 104.746C98.5307 104.732 99.4495 105.64 99.4495 106.765C99.4495 107.89 98.5307 108.798 97.4061 108.785L0.875656 107.651C0.390358 107.646 -6.10352e-05 107.25 -6.10352e-05 106.765C-6.10352e-05 106.28 0.390358 105.885 0.875656 105.879L97.4061 104.746Z" fill="#222222"/>
<mask id="mask0_3060_28" style="mask-type:alpha" maskUnits="userSpaceOnUse" x="0" y="104" width="100" height="5">
<path d="M97.4061 104.746C98.5307 104.732 99.4495 105.64 99.4495 106.765C99.4495 107.89 98.5307 108.798 97.4061 108.785L0.875656 107.651C0.390358 107.646 -6.10352e-05 107.25 -6.10352e-05 106.765C-6.10352e-05 106.28 0.390358 105.885 0.875656 105.879L97.4061 104.746Z" fill="#D0D0D0"/>
</mask>
<g mask="url(#mask0_3060_28)">
<rect width="10.3638" height="1.31637" transform="matrix(-0.558661 0.829396 -0.896258 -0.443533 97.406 102.97)" fill="#575757"/>
<rect width="10.3638" height="1.31637" transform="matrix(-0.558661 0.829396 -0.896258 -0.443533 75.6089 102.97)" fill="#575757"/>
<rect width="10.3638" height="1.31637" transform="matrix(-0.558661 0.829396 -0.896258 -0.443533 86.5073 102.97)" fill="#575757"/>
<rect width="10.3638" height="1.31637" transform="matrix(-0.558661 0.829396 -0.896258 -0.443533 64.7102 102.97)" fill="#575757"/>
<rect width="10.3638" height="1.31637" transform="matrix(-0.558661 0.829396 -0.896258 -0.443533 91.9568 102.97)" fill="#575757"/>
<rect width="10.3638" height="1.31637" transform="matrix(-0.558661 0.829396 -0.896258 -0.443533 70.1597 102.97)" fill="#575757"/>
<rect width="10.3638" height="1.31637" transform="matrix(-0.558661 0.829396 -0.896258 -0.443533 81.0581 102.97)" fill="#575757"/>
<rect width="10.3638" height="1.31637" transform="matrix(-0.558661 0.829396 -0.896258 -0.443533 59.261 102.97)" fill="#575757"/>
<rect width="10.3638" height="1.31637" transform="matrix(-0.558661 0.829396 -0.896258 -0.443533 94.6814 102.97)" fill="#575757"/>
<rect width="10.3638" height="1.31637" transform="matrix(-0.558661 0.829396 -0.896258 -0.443533 72.8843 102.97)" fill="#575757"/>
<rect width="10.3638" height="1.31637" transform="matrix(-0.558661 0.829396 -0.896258 -0.443533 83.7827 102.97)" fill="#575757"/>
<rect width="10.3638" height="1.31637" transform="matrix(-0.558661 0.829396 -0.896258 -0.443533 61.9856 102.97)" fill="#575757"/>
<rect width="10.3638" height="1.31637" transform="matrix(-0.558661 0.829396 -0.896258 -0.443533 89.2322 102.97)" fill="#575757"/>
<rect width="10.3638" height="1.31637" transform="matrix(-0.558661 0.829396 -0.896258 -0.443533 67.4348 102.97)" fill="#575757"/>
<rect width="10.3638" height="1.31637" transform="matrix(-0.558661 0.829396 -0.896258 -0.443533 78.3335 102.97)" fill="#575757"/>
<rect width="10.3638" height="1.31637" transform="matrix(-0.558661 0.829396 -0.896258 -0.443533 56.5364 102.97)" fill="#575757"/>
<rect width="10.3638" height="1.31637" transform="matrix(-0.558661 -0.829396 -0.896258 0.443533 97.406 110.982)" fill="#898989"/>
<rect width="10.3638" height="1.31637" transform="matrix(-0.558661 -0.829396 -0.896258 0.443533 75.6089 110.982)" fill="#898989"/>
<rect width="10.3638" height="1.31637" transform="matrix(-0.558661 -0.829396 -0.896258 0.443533 86.5076 110.982)" fill="#898989"/>
<rect width="10.3638" height="1.31637" transform="matrix(-0.558661 -0.829396 -0.896258 0.443533 64.7102 110.982)" fill="#898989"/>
<rect width="10.3638" height="1.31637" transform="matrix(-0.558661 -0.829396 -0.896258 0.443533 91.9568 110.982)" fill="#898989"/>
<rect width="10.3638" height="1.31637" transform="matrix(-0.558661 -0.829396 -0.896258 0.443533 70.1597 110.982)" fill="#898989"/>
<rect width="10.3638" height="1.31637" transform="matrix(-0.558661 -0.829396 -0.896258 0.443533 81.0581 110.982)" fill="#898989"/>
<rect width="10.3638" height="1.31637" transform="matrix(-0.558661 -0.829396 -0.896258 0.443533 59.261 110.982)" fill="#898989"/>
<rect width="10.3638" height="1.31637" transform="matrix(-0.558661 -0.829396 -0.896258 0.443533 94.6814 110.982)" fill="#898989"/>
<rect width="10.3638" height="1.31637" transform="matrix(-0.558661 -0.829396 -0.896258 0.443533 72.8843 110.982)" fill="#898989"/>
<rect width="10.3638" height="1.31637" transform="matrix(-0.558661 -0.829396 -0.896258 0.443533 83.7827 110.982)" fill="#898989"/>
<rect width="10.3638" height="1.31637" transform="matrix(-0.558661 -0.829396 -0.896258 0.443533 61.9856 110.982)" fill="#898989"/>
<rect width="10.3638" height="1.31637" transform="matrix(-0.558661 -0.829396 -0.896258 0.443533 89.2322 110.982)" fill="#898989"/>
<rect width="10.3638" height="1.31637" transform="matrix(-0.558661 -0.829396 -0.896258 0.443533 67.4348 110.982)" fill="#898989"/>
<rect width="10.3638" height="1.31637" transform="matrix(-0.558661 -0.829396 -0.896258 0.443533 78.3335 110.982)" fill="#898989"/>
<rect width="10.3638" height="1.31637" transform="matrix(-0.558661 -0.829396 -0.896258 0.443533 56.5364 110.982)" fill="#898989"/>
</g>
<path d="M97.7913 115.804C98.9141 115.87 99.7672 116.84 99.6888 117.962C99.6103 119.084 98.6305 119.925 97.5095 119.834L1.29326 111.969C0.809543 111.93 0.447631 111.509 0.481486 111.024C0.515341 110.54 0.932365 110.173 1.41688 110.202L97.7913 115.804Z" fill="#222222"/>
<mask id="mask1_3060_28" style="mask-type:alpha" maskUnits="userSpaceOnUse" x="0" y="110" width="100" height="10">
<path d="M97.7913 115.804C98.9141 115.87 99.7672 116.84 99.6888 117.962C99.6103 119.084 98.6305 119.925 97.5095 119.834L1.29326 111.969C0.809543 111.93 0.447631 111.509 0.481486 111.024C0.515341 110.54 0.932365 110.173 1.41688 110.202L97.7913 115.804Z" fill="#D0D0D0"/>
</mask>
<g mask="url(#mask1_3060_28)">
<rect width="10.3638" height="1.31637" transform="matrix(-0.615156 0.788406 -0.863136 -0.504972 97.915 114.033)" fill="#575757"/>
<rect width="10.3638" height="1.31637" transform="matrix(-0.615156 0.788406 -0.863136 -0.504972 76.1709 112.513)" fill="#575757"/>
<rect width="10.3638" height="1.31637" transform="matrix(-0.615156 0.788406 -0.863136 -0.504972 87.043 113.273)" fill="#575757"/>
<rect width="10.3638" height="1.31637" transform="matrix(-0.615156 0.788406 -0.863136 -0.504972 65.2991 111.752)" fill="#575757"/>
<rect width="10.3638" height="1.31637" transform="matrix(-0.615156 0.788406 -0.863136 -0.504972 92.479 113.653)" fill="#575757"/>
<rect width="10.3638" height="1.31637" transform="matrix(-0.615156 0.788406 -0.863136 -0.504972 70.7349 112.133)" fill="#575757"/>
<rect width="10.3638" height="1.31637" transform="matrix(-0.615156 0.788406 -0.863136 -0.504972 81.6069 112.893)" fill="#575757"/>
<rect width="10.3638" height="1.31637" transform="matrix(-0.615156 0.788406 -0.863136 -0.504972 59.863 111.372)" fill="#575757"/>
<rect width="10.3638" height="1.31637" transform="matrix(-0.615156 0.788406 -0.863136 -0.504972 95.197 113.843)" fill="#575757"/>
<rect width="10.3638" height="1.31637" transform="matrix(-0.615156 0.788406 -0.863136 -0.504972 73.4531 112.323)" fill="#575757"/>
<rect width="10.3638" height="1.31637" transform="matrix(-0.615156 0.788406 -0.863136 -0.504972 84.3252 113.083)" fill="#575757"/>
<rect width="10.3638" height="1.31637" transform="matrix(-0.615156 0.788406 -0.863136 -0.504972 62.5811 111.563)" fill="#575757"/>
<rect width="10.3638" height="1.31637" transform="matrix(-0.615156 0.788406 -0.863136 -0.504972 89.761 113.463)" fill="#575757"/>
<rect width="10.3638" height="1.31637" transform="matrix(-0.615156 0.788406 -0.863136 -0.504972 68.0171 111.943)" fill="#575757"/>
<rect width="10.3638" height="1.31637" transform="matrix(-0.615156 0.788406 -0.863136 -0.504972 78.8892 112.703)" fill="#575757"/>
<rect width="10.3638" height="1.31637" transform="matrix(-0.615156 0.788406 -0.863136 -0.504972 57.145 111.183)" fill="#575757"/>
<rect width="10.3638" height="1.31637" transform="matrix(-0.499444 -0.866346 -0.925014 0.379933 97.356 122.026)" fill="#898989"/>
<rect width="10.3638" height="1.31637" transform="matrix(-0.499444 -0.866346 -0.925014 0.379933 75.6121 120.505)" fill="#898989"/>
<rect width="10.3638" height="1.31637" transform="matrix(-0.499444 -0.866346 -0.925014 0.379933 86.4841 121.265)" fill="#898989"/>
<rect width="10.3638" height="1.31637" transform="matrix(-0.499444 -0.866346 -0.925014 0.379933 64.74 119.745)" fill="#898989"/>
<rect width="10.3638" height="1.31637" transform="matrix(-0.499444 -0.866346 -0.925014 0.379933 91.9202 121.646)" fill="#898989"/>
<rect width="10.3638" height="1.31637" transform="matrix(-0.499444 -0.866346 -0.925014 0.379933 70.176 120.125)" fill="#898989"/>
<rect width="10.3638" height="1.31637" transform="matrix(-0.499444 -0.866346 -0.925014 0.379933 81.0481 120.885)" fill="#898989"/>
<rect width="10.3638" height="1.31637" transform="matrix(-0.499444 -0.866346 -0.925014 0.379933 59.304 119.365)" fill="#898989"/>
<rect width="10.3638" height="1.31637" transform="matrix(-0.499444 -0.866346 -0.925014 0.379933 94.6382 121.835)" fill="#898989"/>
<rect width="10.3638" height="1.31637" transform="matrix(-0.499444 -0.866346 -0.925014 0.379933 72.894 120.315)" fill="#898989"/>
<rect width="10.3638" height="1.31637" transform="matrix(-0.499444 -0.866346 -0.925014 0.379933 83.7661 121.075)" fill="#898989"/>
<rect width="10.3638" height="1.31637" transform="matrix(-0.499444 -0.866346 -0.925014 0.379933 62.022 119.555)" fill="#898989"/>
<rect width="10.3638" height="1.31637" transform="matrix(-0.499444 -0.866346 -0.925014 0.379933 89.2021 121.455)" fill="#898989"/>
<rect width="10.3638" height="1.31637" transform="matrix(-0.499444 -0.866346 -0.925014 0.379933 67.458 119.935)" fill="#898989"/>
<rect width="10.3638" height="1.31637" transform="matrix(-0.499444 -0.866346 -0.925014 0.379933 78.3301 120.695)" fill="#898989"/>
<rect width="10.3638" height="1.31637" transform="matrix(-0.499444 -0.866346 -0.925014 0.379933 56.5859 119.175)" fill="#898989"/>
</g>
<rect x="0.338867" width="99.4495" height="99.4495" rx="1.36232" fill="#DF4A4A"/>
<path d="M24.6154 44.4927V33.2126C22.621 29.9431 20.8064 26.7552 19.1716 23.6491C17.5695 20.543 16.1636 17.3716 14.9538 14.1347H19.4658C20.414 16.8811 21.493 19.5131 22.7027 22.0307C23.9452 24.5156 25.2693 27.0822 26.6752 29.7306C28.1792 26.9514 29.5034 24.3194 30.6478 21.8345C31.8248 19.317 32.8874 16.7503 33.8356 14.1347H38.2495C37.0071 17.3389 35.5848 20.4613 33.9827 23.502C32.3807 26.5427 30.5987 29.7469 28.637 33.1146V44.4927H24.6154ZM70.226 44.4927V33.2126C68.2315 29.9431 66.4169 26.7552 64.7821 23.6491C63.18 20.543 61.7741 17.3716 60.5644 14.1347H65.0764C66.0246 16.8811 67.1035 19.5131 68.3133 22.0307C69.5557 24.5156 70.8799 27.0822 72.2858 29.7306C73.7898 26.9514 75.114 24.3194 76.2583 21.8345C77.4354 19.317 78.498 16.7503 79.4462 14.1347H83.8601C82.6176 17.3389 81.1954 20.4613 79.5933 23.502C77.9912 26.5427 76.2093 29.7469 74.2475 33.1146V44.4927H70.226ZM32.6095 71.5344H36.6311V85.757C36.0099 85.9859 35.0127 86.2638 33.6394 86.5908C32.2662 86.9504 30.6478 87.1302 28.7841 87.1302C26.9532 87.1302 25.2857 86.7869 23.7817 86.1003C22.2777 85.381 20.9862 84.3511 19.9072 83.0106C18.861 81.6701 18.0436 80.0189 17.455 78.0572C16.8665 76.0627 16.5723 73.8067 16.5723 71.2892C16.5723 68.7389 16.8992 66.4829 17.5531 64.5211C18.207 62.5594 19.0898 60.9083 20.2015 59.5677C21.3458 58.2272 22.67 57.2136 24.174 56.527C25.678 55.8077 27.2965 55.4481 29.0293 55.4481C30.141 55.4481 31.1219 55.5298 31.972 55.6933C32.822 55.8568 33.5413 56.0529 34.1299 56.2818C34.7511 56.5107 35.2579 56.7559 35.6502 57.0175C36.0426 57.2463 36.3368 57.4262 36.533 57.5569L35.2088 60.941C34.4568 60.3524 33.5577 59.8783 32.5114 59.5187C31.4979 59.1263 30.4189 58.9302 29.2746 58.9302C28.0321 58.9302 26.8714 59.2244 25.7925 59.813C24.7462 60.4015 23.8471 61.2352 23.0951 62.3142C22.3431 63.3931 21.7545 64.701 21.3295 66.2377C20.9044 67.7417 20.6919 69.4255 20.6919 71.2892C20.6919 73.1201 20.8718 74.7876 21.2314 76.2916C21.6238 77.7956 22.1796 79.0871 22.8989 80.1661C23.6182 81.245 24.501 82.0951 25.5472 82.7163C26.6262 83.3048 27.8523 83.5991 29.2255 83.5991C30.1737 83.5991 30.9093 83.5337 31.4325 83.4029C31.9556 83.2721 32.348 83.1414 32.6095 83.0106V71.5344ZM71.403 83.6481C73.4628 83.6481 75.0322 83.2558 76.1112 82.4711C77.1902 81.6864 77.7296 80.5094 77.7296 78.94C77.7296 77.9918 77.5335 77.1907 77.1411 76.5368C76.7488 75.8502 76.2256 75.2617 75.5717 74.7713C74.9178 74.2481 74.1821 73.8067 73.3648 73.4471C72.5474 73.0547 71.7136 72.6951 70.8635 72.3681C69.8827 71.9758 68.9345 71.5344 68.019 71.0439C67.1362 70.5535 66.3352 69.9813 65.6159 69.3274C64.9293 68.6735 64.3734 67.9052 63.9484 67.0224C63.556 66.1396 63.3599 65.0933 63.3599 63.8836C63.3599 61.2352 64.1936 59.1754 65.8611 57.7041C67.5286 56.2001 69.85 55.4481 72.8253 55.4481C73.6427 55.4481 74.4437 55.5135 75.2284 55.6442C76.0458 55.7423 76.7978 55.8731 77.4844 56.0366C78.171 56.2001 78.7759 56.3962 79.299 56.6251C79.8549 56.854 80.2963 57.0829 80.6232 57.3117L79.3481 60.6957C78.6942 60.3034 77.795 59.911 76.6507 59.5187C75.5063 59.1263 74.2312 58.9302 72.8253 58.9302C71.354 58.9302 70.0788 59.3062 68.9999 60.0582C67.9209 60.7775 67.3814 61.8728 67.3814 63.3441C67.3814 64.1942 67.5286 64.9135 67.8228 65.502C68.1498 66.0905 68.5748 66.6137 69.098 67.0714C69.6538 67.4965 70.2914 67.8888 71.0107 68.2485C71.73 68.6081 72.5147 68.9678 73.3648 69.3274C74.6072 69.8505 75.7352 70.3737 76.7488 70.8968C77.795 71.4199 78.6778 72.0412 79.3971 72.7605C80.1491 73.4798 80.7213 74.3299 81.1136 75.3107C81.5387 76.2916 81.7512 77.485 81.7512 78.8909C81.7512 81.5393 80.8521 83.5828 79.0538 85.0214C77.2882 86.4273 74.738 87.1302 71.403 87.1302C70.3241 87.1302 69.3105 87.0485 68.3623 86.885C67.4141 86.7542 66.564 86.5744 65.812 86.3455C65.0927 86.1167 64.4552 85.8878 63.8993 85.6589C63.3435 85.4301 62.9185 85.2175 62.6242 85.0214L63.8503 81.6864C64.5042 82.0461 65.4687 82.4711 66.7439 82.9615C68.019 83.4193 69.572 83.6481 71.403 83.6481Z" fill="white"/>
</svg>
